<?xml version="1.0" encoding="UTF-8"?>
<svg id="Layer_1" data-name="Layer 1" xmlns="http://www.w3.org/2000/svg" viewBox="0 0 34.08 34.08">
  <defs>
    <style>
      .cls-1 {
        fill: #172f40;
      }
    </style>
  </defs>
  <path class="cls-1" d="M14.04,27.8h4.34v-10.86h3.02l.32-3.64h-3.35v-2.07c0-.86,.17-1.2,1-1.2h2.35v-3.77h-3c-3.23,0-4.68,1.42-4.68,4.14v2.9h-2.26v3.68h2.26v10.81Z"/>
  <path class="cls-1" d="M17.04,34.08C7.64,34.08,0,26.43,0,17.04S7.64,0,17.04,0s17.04,7.64,17.04,17.04-7.64,17.04-17.04,17.04ZM17.04,1.5C8.47,1.5,1.5,8.47,1.5,17.04s6.97,15.54,15.54,15.54,15.54-6.97,15.54-15.54S25.6,1.5,17.04,1.5Z"/>
</svg>